<svg width="1920" height="654" viewBox="0 0 1920 654" fill="none" xmlns="http://www.w3.org/2000/svg">
<rect width="1920" height="654" fill="#283874"/>
<mask id="mask0" mask-type="alpha" maskUnits="userSpaceOnUse" x="0" y="0" width="1920" height="654">
<rect width="1920" height="654" fill="#283874"/>
</mask>
<g mask="url(#mask0)">
<path fill-rule="evenodd" clip-rule="evenodd" d="M205.637 461.327C107.628 571.822 -61.4897 582.035 -172.068 484.118C-282.647 386.201 -292.855 217.226 -194.846 106.732C-126.615 29.8267 -23.9419 1.52934 69.427 24.4052C143.331 36.089 200.567 3.83706 206.642 -66.9509C203.941 -98.4803 213.608 -131.025 236.275 -156.506C280.115 -205.884 355.723 -210.491 405.138 -166.691C454.554 -122.891 459.158 -47.3477 415.317 2.03005C398.183 21.3807 376.222 33.7953 352.873 39.1925C345.297 40.9253 337.669 41.9696 329.92 42.179C260.316 56.829 235.144 117.412 255.702 189.296C289.629 279.21 273.869 384.422 205.637 461.327Z" fill="url(#paint0_linear)"/>
<path fill-rule="evenodd" clip-rule="evenodd" d="M1817.64 121.327C1719.63 231.822 1550.51 242.035 1439.93 144.118C1329.35 46.2014 1319.15 -122.774 1417.15 -233.268C1485.39 -310.173 1588.06 -338.471 1681.43 -315.595C1755.33 -303.911 1812.57 -336.163 1818.64 -406.951C1815.94 -438.48 1825.61 -471.025 1848.27 -496.506C1892.12 -545.884 1967.72 -550.491 2017.14 -506.691C2066.55 -462.891 2071.16 -387.348 2027.32 -337.97C2010.18 -318.619 1988.22 -306.205 1964.87 -300.807C1957.3 -299.075 1949.67 -298.03 1941.92 -297.821C1872.32 -283.171 1847.14 -222.588 1867.7 -150.704C1901.63 -60.7904 1885.87 44.4219 1817.64 121.327Z" fill="url(#paint1_linear)"/>
<path fill-rule="evenodd" clip-rule="evenodd" d="M2054.64 760.327C1956.63 870.822 1787.51 881.035 1676.93 783.118C1566.35 685.201 1556.15 516.226 1654.15 405.732C1722.39 328.827 1825.06 300.529 1918.43 323.405C1992.33 335.089 2049.57 302.837 2055.64 232.049C2052.94 200.52 2062.61 167.975 2085.27 142.494C2129.12 93.1164 2204.72 88.5094 2254.14 132.309C2303.55 176.109 2308.16 251.652 2264.32 301.03C2247.18 320.381 2225.22 332.795 2201.87 338.193C2194.3 339.925 2186.67 340.97 2178.92 341.179C2109.32 355.829 2084.14 416.412 2104.7 488.296C2138.63 578.21 2122.87 683.422 2054.64 760.327Z" fill="url(#paint2_linear)"/>
<path opacity="0.1" d="M1629.99 378.439C1629.17 379.256 1627.81 379.256 1626.99 378.439C1626.18 377.621 1626.18 376.258 1626.99 375.441L1712.37 289.994C1713.19 289.177 1714.55 289.177 1715.37 289.994C1716.19 290.812 1716.19 292.175 1715.37 292.992L1629.99 378.439ZM1644.23 394.247C1643.42 395.065 1642.05 395.065 1641.23 394.247C1640.42 393.429 1640.42 392.066 1641.23 391.249L1728.18 304.304C1729 303.486 1730.36 303.486 1731.18 304.304C1731.99 305.121 1731.99 306.484 1731.18 307.302L1644.23 394.247ZM1663.86 404.604C1663.04 405.422 1661.68 405.422 1660.86 404.604C1660.04 403.786 1660.04 402.424 1660.86 401.606L1738.54 323.928C1739.35 323.11 1740.72 323.11 1741.53 323.928C1742.35 324.745 1742.35 326.108 1741.53 326.926L1663.86 404.604ZM1689.54 408.965C1688.73 409.783 1687.36 409.783 1686.55 408.965C1685.73 408.147 1685.73 406.784 1686.55 405.967L1743.51 349.003C1744.33 348.185 1745.69 348.185 1746.51 349.003C1747.33 349.82 1747.33 351.183 1746.51 352.001L1689.54 408.965ZM1709.99 418.504C1709.17 419.322 1707.81 419.322 1706.99 418.504C1706.17 417.687 1706.17 416.324 1706.99 415.506L1751 371.488C1751.82 370.671 1753.19 370.671 1754 371.488C1754.82 372.306 1754.82 373.669 1754 374.487L1709.99 418.504ZM1722.66 435.88C1721.84 436.697 1720.48 436.697 1719.66 435.88C1718.84 435.062 1718.84 433.699 1719.66 432.882L1764.63 387.91C1765.45 387.092 1766.81 387.092 1767.63 387.91C1768.45 388.728 1768.45 390.09 1767.63 390.908L1722.66 435.88ZM1725.66 462.931C1724.84 463.749 1723.48 463.749 1722.66 462.931C1721.84 462.113 1721.84 460.751 1722.66 459.933L1789.57 393.02C1790.39 392.203 1791.75 392.203 1792.57 393.02C1793.39 393.838 1793.39 395.201 1792.57 396.019L1725.66 462.931ZM1717.28 501.361C1716.46 502.179 1715.1 502.179 1714.28 501.361C1713.46 500.544 1713.46 499.181 1714.28 498.363L1832.7 379.938C1833.52 379.12 1834.88 379.12 1835.7 379.938C1836.52 380.755 1836.52 382.118 1835.7 382.936L1717.28 501.361ZM1701.61 547.014C1700.79 547.832 1699.42 547.832 1698.61 547.014C1697.79 546.197 1697.79 544.834 1698.61 544.016L1882.24 360.382C1883.06 359.564 1884.42 359.564 1885.24 360.382C1886.05 361.2 1886.05 362.562 1885.24 363.38L1701.61 547.014ZM1693.29 585.377C1692.47 586.194 1691.11 586.194 1690.29 585.377C1689.48 584.559 1689.48 583.196 1690.29 582.379L1920.53 352.137C1921.35 351.319 1922.71 351.319 1923.53 352.137C1924.35 352.955 1924.35 354.317 1923.53 355.135L1693.29 585.377ZM1690.7 618.015C1689.89 618.833 1688.52 618.833 1687.7 618.015C1686.89 617.198 1686.89 615.835 1687.7 615.017L1953.24 349.48C1954.06 348.662 1955.42 348.662 1956.24 349.48C1957.05 350.297 1957.05 351.66 1956.24 352.478L1690.7 618.015ZM1691.66 647.042C1690.84 647.86 1689.48 647.86 1688.66 647.042C1687.84 646.225 1687.84 644.862 1688.66 644.044L1982.26 350.434C1983.08 349.616 1984.45 349.616 1985.26 350.434C1986.08 351.251 1986.08 352.614 1985.26 353.432L1691.66 647.042ZM1695.34 673.412C1694.52 674.23 1693.16 674.23 1692.34 673.412C1691.52 672.595 1691.52 671.232 1692.34 670.414L2008.7 354.045C2009.52 353.227 2010.88 353.227 2011.7 354.045C2012.52 354.863 2012.52 356.225 2011.7 357.043L1695.34 673.412ZM1700.99 697.738C1700.17 698.555 1698.81 698.555 1697.99 697.738C1697.18 696.92 1697.18 695.557 1697.99 694.74L2032.96 359.769C2033.78 358.951 2035.14 358.951 2035.96 359.769C2036.78 360.586 2036.78 361.949 2035.96 362.767L1700.99 697.738ZM1708.49 720.292C1707.67 721.109 1706.31 721.109 1705.49 720.292C1704.67 719.474 1704.67 718.111 1705.49 717.294L2055.51 367.264C2056.33 366.446 2057.69 366.446 2058.51 367.264C2059.33 368.082 2059.33 369.444 2058.51 370.262L1708.49 720.292ZM1717.55 741.279C1716.73 742.096 1715.37 742.096 1714.55 741.279C1713.73 740.461 1713.73 739.098 1714.55 738.28L2076.43 376.326C2077.25 375.509 2078.61 375.509 2079.43 376.326C2080.25 377.144 2080.25 378.507 2079.43 379.324L1717.55 741.279ZM1727.97 760.834C1727.16 761.652 1725.79 761.652 1724.98 760.834C1724.16 760.017 1724.16 758.654 1724.98 757.836L2095.99 386.82C2096.8 386.002 2098.17 386.002 2098.99 386.82C2099.8 387.637 2099.8 389 2098.99 389.818L1727.97 760.834ZM1739.76 779.096C1738.94 779.913 1737.58 779.913 1736.76 779.096C1735.95 778.278 1735.95 776.915 1736.76 776.098L2114.32 398.54C2115.13 397.722 2116.5 397.722 2117.31 398.54C2118.13 399.357 2118.13 400.72 2117.31 401.538L1739.76 779.096ZM1752.78 796.13C1751.96 796.948 1750.6 796.948 1749.78 796.13C1748.96 795.313 1748.96 793.95 1749.78 793.132L2131.35 411.554C2132.17 410.737 2133.53 410.737 2134.35 411.554C2135.17 412.372 2135.17 413.735 2134.35 414.552L1752.78 796.13ZM1766.95 811.939C1766.13 812.756 1764.77 812.756 1763.95 811.939C1763.13 811.121 1763.13 809.758 1763.95 808.941L2147.16 425.727C2147.98 424.909 2149.34 424.909 2150.16 425.727C2150.97 426.545 2150.97 427.908 2150.16 428.725L1766.95 811.939ZM1782.35 826.657C1781.53 827.474 1780.17 827.474 1779.35 826.657C1778.53 825.839 1778.53 824.476 1779.35 823.659L2161.88 441.126C2162.69 440.309 2164.06 440.309 2164.87 441.126C2165.69 441.944 2165.69 443.307 2164.87 444.125L1782.35 826.657ZM1798.84 840.148C1798.02 840.966 1796.66 840.966 1795.84 840.148C1795.02 839.331 1795.02 837.968 1795.84 837.15L2175.3 457.616C2176.12 456.798 2177.48 456.798 2178.3 457.616C2179.12 458.434 2179.12 459.797 2178.3 460.614L1798.84 840.148ZM1816.62 852.413C1815.8 853.231 1814.44 853.231 1813.62 852.413C1812.81 851.596 1812.81 850.233 1813.62 849.415L2188.38 474.651C2189.2 473.833 2190.56 473.833 2191.38 474.651C2192.2 475.469 2192.2 476.831 2191.38 477.649L1816.62 852.413ZM1835.63 863.384C1834.81 864.201 1833.45 864.201 1832.63 863.384C1831.82 862.566 1831.82 861.203 1832.63 860.385L2203.3 489.71C2204.12 488.892 2205.48 488.892 2206.3 489.71C2207.12 490.527 2207.12 491.89 2206.3 492.708L1835.63 863.384ZM1856.01 873.059C1855.19 873.877 1853.83 873.877 1853.01 873.059C1852.19 872.242 1852.19 870.879 1853.01 870.061L2220.27 502.792C2221.09 501.975 2222.45 501.975 2223.27 502.792C2224.09 503.61 2224.09 504.973 2223.27 505.79L1856.01 873.059ZM1877.81 881.236C1876.99 882.054 1875.63 882.054 1874.81 881.236C1873.99 880.418 1873.99 879.056 1874.81 878.238L2239.55 513.49C2240.37 512.672 2241.73 512.672 2242.55 513.49C2243.37 514.308 2243.37 515.671 2242.55 516.488L1877.81 881.236ZM1901.39 887.709C1900.57 888.527 1899.2 888.527 1898.39 887.709C1897.57 886.891 1897.57 885.529 1898.39 884.711L2262.65 520.44C2263.47 519.623 2264.83 519.623 2265.65 520.44C2266.47 521.258 2266.47 522.621 2265.65 523.438L1901.39 887.709ZM1926.87 892.274C1926.05 893.092 1924.69 893.092 1923.87 892.274C1923.05 891.457 1923.05 890.094 1923.87 889.276L2292.16 520.985C2292.97 520.168 2294.34 520.168 2295.15 520.985C2295.97 521.803 2295.97 523.166 2295.15 523.983L1926.87 892.274ZM1954.74 894.387C1953.92 895.204 1952.56 895.204 1951.74 894.387C1950.92 893.569 1950.92 892.206 1951.74 891.389L2380.94 462.181C2381.76 461.364 2383.12 461.364 2383.94 462.181C2384.76 462.999 2384.76 464.362 2383.94 465.18L1954.74 894.387ZM1985.81 893.433C1984.99 894.25 1983.63 894.25 1982.81 893.433C1981.99 892.615 1981.99 891.252 1982.81 890.435L2428.02 445.147C2428.84 444.329 2430.2 444.329 2431.02 445.147C2431.84 445.964 2431.84 447.327 2431.02 448.145L1985.81 893.433ZM2021.38 887.845C2020.56 888.663 2019.2 888.663 2018.38 887.845C2017.56 887.028 2017.56 885.665 2018.38 884.847L2458.48 444.738C2459.3 443.92 2460.66 443.92 2461.48 444.738C2462.3 445.556 2462.3 446.918 2461.48 447.736L2021.38 887.845ZM2290.25 649.018C2289.43 649.836 2288.07 649.836 2287.25 649.018C2286.43 648.201 2286.43 646.838 2287.25 646.02L2483.08 450.121C2483.9 449.303 2485.26 449.303 2486.08 450.121C2486.89 450.939 2486.89 452.301 2486.08 453.119L2290.25 649.018ZM2065.26 873.945C2064.44 874.763 2063.08 874.763 2062.26 873.945C2061.44 873.127 2061.44 871.765 2062.26 870.947L2209.1 724.108C2209.91 723.29 2211.28 723.29 2212.09 724.108C2212.91 724.925 2212.91 726.288 2212.09 727.106L2065.26 873.945ZM2323.7 645.612C2322.89 646.429 2321.52 646.429 2320.71 645.612C2319.89 644.794 2319.89 643.431 2320.71 642.613L2503.93 459.388C2504.75 458.57 2506.11 458.57 2506.93 459.388C2507.74 460.205 2507.74 461.568 2506.93 462.386L2323.7 645.612ZM2348.37 650.926C2347.55 651.744 2346.19 651.744 2345.37 650.926C2344.55 650.109 2344.55 648.746 2345.37 647.928L2521.78 471.516C2522.6 470.699 2523.96 470.699 2524.78 471.516C2525.6 472.334 2525.6 473.697 2524.78 474.515L2348.37 650.926ZM2368.95 660.398C2368.13 661.215 2366.77 661.215 2365.95 660.398C2365.13 659.58 2365.13 658.217 2365.95 657.4L2536.98 486.371C2537.79 485.553 2539.16 485.553 2539.97 486.371C2540.79 487.188 2540.79 488.551 2539.97 489.369L2368.95 660.398ZM2386.66 672.731C2385.85 673.548 2384.48 673.548 2383.66 672.731C2382.85 671.913 2382.85 670.55 2383.66 669.733L2549.44 503.951C2550.26 503.133 2551.62 503.133 2552.44 503.951C2553.26 504.768 2553.26 506.131 2552.44 506.949L2386.66 672.731ZM2407.1 682.27C2406.29 683.088 2404.92 683.088 2404.11 682.27C2403.29 681.453 2403.29 680.09 2404.11 679.272L2558.98 524.392C2559.8 523.575 2561.16 523.575 2561.98 524.392C2562.8 525.21 2562.8 526.573 2561.98 527.39L2407.1 682.27ZM2431.23 688.198C2430.41 689.016 2429.04 689.016 2428.23 688.198C2427.41 687.381 2427.41 686.018 2428.23 685.2L2564.91 548.513C2565.73 547.696 2567.09 547.696 2567.91 548.513C2568.73 549.331 2568.73 550.694 2567.91 551.512L2431.23 688.198ZM2460.8 688.607C2459.98 689.425 2458.62 689.425 2457.8 688.607C2456.98 687.79 2456.98 686.427 2457.8 685.609L2565.39 578.018C2566.21 577.2 2567.57 577.2 2568.39 578.018C2569.2 578.835 2569.2 580.198 2568.39 581.016L2460.8 688.607ZM2503.72 675.729C2502.91 676.547 2501.54 676.547 2500.73 675.729C2499.91 674.911 2499.91 673.548 2500.73 672.731L2552.44 621.013C2553.26 620.196 2554.62 620.196 2555.44 621.013C2556.26 621.831 2556.26 623.194 2555.44 624.011L2503.72 675.729ZM1624.4 323.996C1623.59 324.813 1622.22 324.813 1621.41 323.996C1620.59 323.178 1620.59 321.815 1621.41 320.998L1657.93 284.475C1658.75 283.657 1660.11 283.657 1660.93 284.475C1661.74 285.293 1661.74 286.656 1660.93 287.473L1624.4 323.996ZM1621.61 356.839C1620.79 357.656 1619.43 357.656 1618.61 356.839C1617.8 356.021 1617.8 354.658 1618.61 353.841L1690.84 281.613C1691.66 280.796 1693.02 280.796 1693.84 281.613C1694.66 282.431 1694.66 283.794 1693.84 284.611L1621.61 356.839Z" fill="#62B7E3"/>
<path opacity="0.1" d="M188.231 774.993C189.233 774.415 190.549 774.768 191.127 775.769C191.705 776.77 191.353 778.087 190.351 778.665L85.7684 839.103C84.767 839.681 83.4506 839.328 82.8724 838.327C82.2942 837.325 82.6469 836.009 83.6484 835.431L188.231 774.993ZM178.567 756.038C179.568 755.459 180.885 755.812 181.463 756.814C182.041 757.815 181.688 759.131 180.687 759.71L74.2026 821.19C73.2012 821.768 71.8847 821.415 71.3066 820.414C70.7284 819.412 71.0811 818.096 72.0825 817.518L178.567 756.038ZM162.293 740.954C163.294 740.376 164.61 740.729 165.188 741.73C165.767 742.732 165.414 744.048 164.412 744.626L69.2775 799.554C68.276 800.132 66.9598 799.779 66.3816 798.778C65.8035 797.776 66.1562 796.46 67.1576 795.882L162.293 740.954ZM138.609 730.094C139.61 729.515 140.926 729.868 141.504 730.87C142.083 731.871 141.73 733.187 140.729 733.766L70.9629 774.046C69.9615 774.624 68.6451 774.271 68.0669 773.27C67.4888 772.268 67.8415 770.952 68.8429 770.374L138.609 730.094ZM121.333 715.589C122.334 715.01 123.65 715.363 124.229 716.365C124.807 717.366 124.454 718.682 123.453 719.261L69.5429 750.386C68.5415 750.964 67.2251 750.611 66.6469 749.61C66.0688 748.609 66.4215 747.292 67.4229 746.714L121.333 715.589ZM113.588 695.525C114.589 694.947 115.906 695.3 116.484 696.301C117.062 697.302 116.709 698.619 115.708 699.197L60.6299 730.997C59.6285 731.575 58.3121 731.222 57.7339 730.221C57.1557 729.22 57.5084 727.903 58.5099 727.325L113.588 695.525ZM117.694 668.62C118.695 668.042 120.011 668.394 120.589 669.396C121.168 670.397 120.815 671.713 119.813 672.292L37.8638 719.606C36.8624 720.184 35.5461 719.832 34.968 718.83C34.3898 717.829 34.7425 716.512 35.7439 715.934L117.694 668.62ZM135.735 633.668C136.737 633.09 138.053 633.442 138.631 634.444C139.209 635.445 138.857 636.762 137.855 637.34L-7.18386 721.08C-8.18527 721.658 -9.50154 721.305 -10.0797 720.304C-10.6579 719.302 -10.3051 717.986 -9.30374 717.408L135.735 633.668ZM162.689 593.627C163.69 593.048 165.007 593.401 165.585 594.403C166.163 595.404 165.81 596.72 164.809 597.299L-60.0936 727.148C-61.095 727.727 -62.4113 727.374 -62.9894 726.372C-63.5676 725.371 -63.2149 724.055 -62.2135 723.477L162.689 593.627ZM180.647 558.723C181.649 558.145 182.965 558.498 183.543 559.499C184.121 560.5 183.769 561.817 182.767 562.395L-99.2161 725.201C-100.218 725.779 -101.534 725.427 -102.112 724.425C-102.69 723.424 -102.338 722.107 -101.336 721.529L180.647 558.723ZM191.596 527.867C192.597 527.289 193.914 527.641 194.492 528.643C195.07 529.644 194.717 530.96 193.716 531.539L-131.496 719.303C-132.497 719.881 -133.813 719.529 -134.392 718.527C-134.97 717.526 -134.617 716.209 -133.616 715.631L191.596 527.867ZM198.187 499.582C199.189 499.004 200.505 499.356 201.083 500.358C201.661 501.359 201.309 502.675 200.307 503.254L-159.286 710.869C-160.288 711.447 -161.604 711.094 -162.182 710.093C-162.76 709.092 -162.408 707.775 -161.406 707.197L198.187 499.582ZM201.458 473.158C202.46 472.58 203.776 472.933 204.354 473.934C204.932 474.936 204.58 476.252 203.578 476.83L-183.888 700.538C-184.89 701.116 -186.206 700.764 -186.784 699.762C-187.362 698.761 -187.01 697.444 -186.008 696.866L201.458 473.158ZM202.291 448.198C203.293 447.62 204.609 447.972 205.187 448.974C205.765 449.975 205.413 451.291 204.411 451.87L-205.838 688.731C-206.839 689.309 -208.155 688.957 -208.734 687.955C-209.312 686.954 -208.959 685.638 -207.958 685.059L202.291 448.198ZM200.889 424.472C201.89 423.894 203.207 424.247 203.785 425.248C204.363 426.25 204.01 427.566 203.009 428.144L-225.683 675.654C-226.684 676.232 -228 675.88 -228.579 674.878C-229.157 673.877 -228.804 672.56 -227.803 671.982L200.889 424.472ZM197.567 401.855C198.569 401.277 199.885 401.63 200.463 402.631C201.041 403.633 200.689 404.949 199.687 405.527L-243.543 661.486C-244.544 662.065 -245.86 661.712 -246.439 660.71C-247.017 659.709 -246.664 658.393 -245.663 657.815L197.567 401.855ZM192.559 380.267C193.56 379.689 194.877 380.042 195.455 381.043C196.033 382.045 195.68 383.361 194.679 383.939L-259.716 646.289C-260.718 646.867 -262.034 646.515 -262.612 645.513C-263.19 644.512 -262.838 643.195 -261.836 642.617L192.559 380.267ZM185.899 359.577C186.901 358.999 188.217 359.352 188.795 360.353C189.373 361.355 189.02 362.671 188.019 363.249L-274.387 630.225C-275.389 630.803 -276.705 630.45 -277.283 629.449C-277.861 628.447 -277.509 627.131 -276.507 626.553L185.899 359.577ZM177.737 339.755C178.739 339.177 180.055 339.529 180.633 340.531C181.211 341.532 180.858 342.849 179.857 343.427L-287.473 613.245C-288.474 613.823 -289.791 613.47 -290.369 612.469C-290.947 611.467 -290.594 610.151 -289.593 609.573L177.737 339.755ZM168.139 320.817C169.14 320.239 170.457 320.592 171.035 321.593C171.613 322.595 171.26 323.911 170.259 324.489L-299.074 595.463C-300.075 596.042 -301.392 595.689 -301.97 594.687C-302.548 593.686 -302.195 592.37 -301.194 591.792L168.139 320.817ZM157.074 302.615C158.075 302.037 159.391 302.39 159.97 303.391C160.548 304.392 160.195 305.709 159.194 306.287L-309.305 576.78C-310.306 577.358 -311.622 577.005 -312.201 576.004C-312.779 575.002 -312.426 573.686 -311.425 573.108L157.074 302.615ZM144.638 285.315C145.639 284.737 146.956 285.09 147.534 286.091C148.112 287.093 147.759 288.409 146.758 288.987L-318.003 557.378C-319.004 557.956 -320.32 557.603 -320.899 556.602C-321.477 555.6 -321.124 554.284 -320.123 553.706L144.638 285.315ZM130.634 268.866C131.636 268.287 132.952 268.64 133.53 269.641C134.108 270.643 133.756 271.959 132.754 272.537L-326.23 537.537C-327.232 538.115 -328.548 537.763 -329.126 536.761C-329.704 535.76 -329.352 534.444 -328.35 533.865L130.634 268.866ZM115.111 253.349C116.112 252.771 117.429 253.123 118.007 254.125C118.585 255.126 118.232 256.442 117.231 257.021L-336.747 519.13C-337.748 519.708 -339.064 519.355 -339.643 518.354C-340.221 517.352 -339.868 516.036 -338.867 515.458L115.111 253.349ZM97.9363 238.73C98.9377 238.152 100.254 238.504 100.832 239.506C101.41 240.507 101.058 241.823 100.056 242.402L-349.749 502.101C-350.75 502.68 -352.067 502.327 -352.645 501.326C-353.223 500.324 -352.87 499.008 -351.869 498.43L97.9363 238.73ZM78.9914 225.188C79.9929 224.61 81.3091 224.963 81.8873 225.964C82.4655 226.966 82.1128 228.282 81.1114 228.86L-365.606 486.777C-366.607 487.356 -367.924 487.003 -368.502 486.001C-369.08 485 -368.727 483.684 -367.726 483.105L78.9914 225.188ZM57.8944 212.834C58.8958 212.256 60.2122 212.608 60.7904 213.61C61.3686 214.611 61.0159 215.928 60.0144 216.506L-386.119 474.086C-387.12 474.664 -388.437 474.311 -389.015 473.31C-389.593 472.308 -389.24 470.992 -388.239 470.414L57.8944 212.834ZM34.4608 201.828C35.4622 201.25 36.7785 201.603 37.3567 202.604C37.9349 203.606 37.5821 204.922 36.5807 205.5L-414.476 465.923C-415.478 466.501 -416.794 466.148 -417.372 465.147C-417.95 464.146 -417.597 462.829 -416.596 462.251L34.4608 201.828ZM8.08879 192.575C9.09022 191.997 10.4065 192.35 10.9847 193.351C11.5628 194.353 11.2101 195.669 10.2087 196.247L-515.454 499.744C-516.455 500.322 -517.772 499.97 -518.35 498.968C-518.928 497.967 -518.575 496.651 -517.574 496.072L8.08879 192.575ZM-22.1703 185.455C-21.1689 184.877 -19.8527 185.229 -19.2745 186.231C-18.6963 187.232 -19.049 188.549 -20.0505 189.127L-565.342 504.013C-566.343 504.591 -567.66 504.238 -568.238 503.237C-568.816 502.235 -568.463 500.919 -567.462 500.341L-22.1703 185.455ZM-57.9724 181.646C-56.971 181.068 -55.6547 181.421 -55.0766 182.422C-54.4984 183.424 -54.8511 184.74 -55.8526 185.318L-594.867 496.524C-595.869 497.103 -597.185 496.75 -597.763 495.748C-598.342 494.747 -597.989 493.431 -596.988 492.852L-57.9724 181.646ZM-379.496 342.746C-378.494 342.168 -377.178 342.521 -376.6 343.522C-376.022 344.524 -376.374 345.84 -377.376 346.418L-617.234 484.958C-618.235 485.537 -619.552 485.184 -620.13 484.183C-620.708 483.181 -620.355 481.865 -619.354 481.287L-379.496 342.746ZM-103.956 183.716C-102.954 183.138 -101.638 183.49 -101.06 184.492C-100.482 185.493 -100.834 186.81 -101.836 187.388L-281.674 291.22C-282.676 291.798 -283.992 291.445 -284.57 290.444C-285.148 289.442 -284.796 288.126 -283.794 287.548L-103.956 183.716ZM-412.693 337.378C-411.692 336.8 -410.376 337.153 -409.797 338.154C-409.219 339.156 -409.572 340.472 -410.573 341.05L-634.975 470.611C-635.977 471.189 -637.293 470.836 -637.871 469.835C-638.449 468.834 -638.097 467.517 -637.095 466.939L-412.693 337.378ZM-435.143 325.86C-434.142 325.282 -432.825 325.635 -432.247 326.636C-431.669 327.638 -432.022 328.954 -433.023 329.532L-649.08 454.275C-650.081 454.853 -651.398 454.5 -651.976 453.499C-652.554 452.498 -652.201 451.181 -651.2 450.603L-435.143 325.86ZM-452.568 311.386C-451.567 310.808 -450.25 311.16 -449.672 312.162C-449.094 313.163 -449.447 314.48 -450.448 315.058L-659.912 435.994C-660.914 436.572 -662.23 436.22 -662.808 435.218C-663.386 434.217 -663.034 432.9 -662.032 432.322L-452.568 311.386ZM-466.488 294.888C-465.487 294.31 -464.171 294.662 -463.592 295.664C-463.014 296.665 -463.367 297.982 -464.368 298.56L-667.407 415.786C-668.408 416.364 -669.724 416.012 -670.303 415.01C-670.881 414.009 -670.528 412.692 -669.527 412.114L-466.488 294.888ZM-483.764 280.383C-482.763 279.805 -481.446 280.157 -480.868 281.159C-480.29 282.16 -480.643 283.477 -481.644 284.055L-671.33 393.572C-672.332 394.15 -673.648 393.797 -674.226 392.796C-674.804 391.795 -674.452 390.478 -673.45 389.9L-483.764 280.383ZM-505.529 268.414C-504.527 267.836 -503.211 268.188 -502.633 269.19C-502.055 270.191 -502.408 271.508 -503.409 272.086L-670.813 368.738C-671.815 369.317 -673.131 368.964 -673.709 367.962C-674.287 366.961 -673.935 365.645 -672.933 365.066L-505.529 268.414ZM-533.987 260.365C-532.986 259.787 -531.669 260.14 -531.091 261.141C-530.513 262.143 -530.866 263.459 -531.867 264.037L-663.638 340.116C-664.639 340.694 -665.955 340.342 -666.534 339.34C-667.112 338.339 -666.759 337.022 -665.758 336.444L-533.987 260.365ZM-578.785 261.694C-577.783 261.116 -576.467 261.469 -575.889 262.47C-575.31 263.472 -575.663 264.788 -576.665 265.366L-640.005 301.936C-641.006 302.514 -642.322 302.162 -642.9 301.16C-643.479 300.159 -643.126 298.842 -642.124 298.264L-578.785 261.694ZM179.537 829.027C180.539 828.449 181.855 828.802 182.433 829.803C183.011 830.804 182.659 832.121 181.657 832.699L136.927 858.524C135.925 859.103 134.609 858.75 134.031 857.748C133.453 856.747 133.806 855.431 134.807 854.853L179.537 829.027ZM190.736 798.026C191.737 797.448 193.054 797.801 193.632 798.802C194.21 799.804 193.857 801.12 192.856 801.698L104.397 852.771C103.396 853.349 102.079 852.996 101.501 851.995C100.923 850.993 101.276 849.677 102.277 849.099L190.736 798.026Z" fill="#62B7E3"/>
</g>
<defs>
<linearGradient id="paint0_linear" x1="506.105" y1="26.9474" x2="-246.632" y2="376.664" gradientUnits="userSpaceOnUse">
<stop stop-color="#0191DD" stop-opacity="0.21"/>
<stop offset="1" stop-color="#0191DD" stop-opacity="0"/>
</linearGradient>
<linearGradient id="paint1_linear" x1="2118.11" y1="-313.053" x2="1365.37" y2="36.6643" gradientUnits="userSpaceOnUse">
<stop stop-color="#0191DD" stop-opacity="0.21"/>
<stop offset="1" stop-color="#0191DD" stop-opacity="0"/>
</linearGradient>
<linearGradient id="paint2_linear" x1="2355.11" y1="325.947" x2="1602.37" y2="675.664" gradientUnits="userSpaceOnUse">
<stop stop-color="#0191DD" stop-opacity="0.21"/>
<stop offset="1" stop-color="#0191DD" stop-opacity="0"/>
</linearGradient>
</defs>
</svg>
