<svg width="501" height="47" viewBox="0 0 501 47" fill="none" xmlns="http://www.w3.org/2000/svg">
<path d="M447.624 46V45.244L450.648 42.196C451.512 41.332 451.944 40.592 451.944 39.976C451.944 39.44 451.776 39.024 451.44 38.728C451.112 38.424 450.716 38.272 450.252 38.272C449.388 38.272 448.76 38.668 448.368 39.46L447.66 39.04C447.924 38.52 448.284 38.128 448.74 37.864C449.196 37.592 449.7 37.456 450.252 37.456C450.924 37.456 451.512 37.684 452.016 38.14C452.528 38.588 452.784 39.2 452.784 39.976C452.784 40.464 452.648 40.932 452.376 41.38C452.104 41.828 451.72 42.3 451.224 42.796L448.824 45.184H452.964V46H447.624ZM463.768 44.968C463.216 45.752 462.436 46.144 461.428 46.144C460.42 46.144 459.636 45.752 459.076 44.968C458.524 44.176 458.248 43.12 458.248 41.8C458.248 40.48 458.524 39.428 459.076 38.644C459.636 37.852 460.42 37.456 461.428 37.456C462.436 37.456 463.216 37.852 463.768 38.644C464.328 39.428 464.608 40.48 464.608 41.8C464.608 43.12 464.328 44.176 463.768 44.968ZM459.7 44.404C460.116 45.02 460.692 45.328 461.428 45.328C462.164 45.328 462.736 45.02 463.144 44.404C463.56 43.788 463.768 42.92 463.768 41.8C463.768 40.68 463.56 39.812 463.144 39.196C462.736 38.58 462.164 38.272 461.428 38.272C460.692 38.272 460.116 38.58 459.7 39.196C459.292 39.812 459.088 40.68 459.088 41.8C459.088 42.92 459.292 43.788 459.7 44.404ZM471.927 44.968C471.375 45.752 470.595 46.144 469.587 46.144C468.579 46.144 467.795 45.752 467.235 44.968C466.683 44.176 466.407 43.12 466.407 41.8C466.407 40.48 466.683 39.428 467.235 38.644C467.795 37.852 468.579 37.456 469.587 37.456C470.595 37.456 471.375 37.852 471.927 38.644C472.487 39.428 472.767 40.48 472.767 41.8C472.767 43.12 472.487 44.176 471.927 44.968ZM467.859 44.404C468.275 45.02 468.851 45.328 469.587 45.328C470.323 45.328 470.895 45.02 471.303 44.404C471.719 43.788 471.927 42.92 471.927 41.8C471.927 40.68 471.719 39.812 471.303 39.196C470.895 38.58 470.323 38.272 469.587 38.272C468.851 38.272 468.275 38.58 467.859 39.196C467.451 39.812 467.247 40.68 467.247 41.8C467.247 42.92 467.451 43.788 467.859 44.404ZM480.086 44.968C479.534 45.752 478.754 46.144 477.746 46.144C476.738 46.144 475.954 45.752 475.394 44.968C474.842 44.176 474.566 43.12 474.566 41.8C474.566 40.48 474.842 39.428 475.394 38.644C475.954 37.852 476.738 37.456 477.746 37.456C478.754 37.456 479.534 37.852 480.086 38.644C480.646 39.428 480.926 40.48 480.926 41.8C480.926 43.12 480.646 44.176 480.086 44.968ZM476.018 44.404C476.434 45.02 477.01 45.328 477.746 45.328C478.482 45.328 479.054 45.02 479.462 44.404C479.878 43.788 480.086 42.92 480.086 41.8C480.086 40.68 479.878 39.812 479.462 39.196C479.054 38.58 478.482 38.272 477.746 38.272C477.01 38.272 476.434 38.58 476.018 39.196C475.61 39.812 475.406 40.68 475.406 41.8C475.406 42.92 475.61 43.788 476.018 44.404ZM494.364 37.6V46H493.524V38.872L490.584 43.792H490.464L487.524 38.872V46H486.684V37.6H487.728L490.524 42.28L493.32 37.6H494.364ZM496.294 40.48V39.868L498.31 38.02C498.646 37.724 498.814 37.384 498.814 37C498.814 36.776 498.734 36.596 498.574 36.46C498.422 36.324 498.214 36.256 497.95 36.256C497.454 36.256 497.106 36.504 496.906 37L496.282 36.652C496.586 35.908 497.142 35.536 497.95 35.536C498.43 35.536 498.818 35.676 499.114 35.956C499.41 36.236 499.558 36.584 499.558 37C499.558 37.552 499.31 38.052 498.814 38.5L497.398 39.76H499.654V40.48H496.294Z" fill="#686B78"/>
<path d="M227.585 37.6H228.305V46H227.465V38.524L225.581 39.088L225.365 38.368L227.585 37.6ZM239.583 44.968C239.031 45.752 238.251 46.144 237.243 46.144C236.235 46.144 235.451 45.752 234.891 44.968C234.339 44.176 234.063 43.12 234.063 41.8C234.063 40.48 234.339 39.428 234.891 38.644C235.451 37.852 236.235 37.456 237.243 37.456C238.251 37.456 239.031 37.852 239.583 38.644C240.143 39.428 240.423 40.48 240.423 41.8C240.423 43.12 240.143 44.176 239.583 44.968ZM235.515 44.404C235.931 45.02 236.507 45.328 237.243 45.328C237.979 45.328 238.551 45.02 238.959 44.404C239.375 43.788 239.583 42.92 239.583 41.8C239.583 40.68 239.375 39.812 238.959 39.196C238.551 38.58 237.979 38.272 237.243 38.272C236.507 38.272 235.931 38.58 235.515 39.196C235.107 39.812 234.903 40.68 234.903 41.8C234.903 42.92 235.107 43.788 235.515 44.404ZM247.742 44.968C247.19 45.752 246.41 46.144 245.402 46.144C244.394 46.144 243.61 45.752 243.05 44.968C242.498 44.176 242.222 43.12 242.222 41.8C242.222 40.48 242.498 39.428 243.05 38.644C243.61 37.852 244.394 37.456 245.402 37.456C246.41 37.456 247.19 37.852 247.742 38.644C248.302 39.428 248.582 40.48 248.582 41.8C248.582 43.12 248.302 44.176 247.742 44.968ZM243.674 44.404C244.09 45.02 244.666 45.328 245.402 45.328C246.138 45.328 246.71 45.02 247.118 44.404C247.534 43.788 247.742 42.92 247.742 41.8C247.742 40.68 247.534 39.812 247.118 39.196C246.71 38.58 246.138 38.272 245.402 38.272C244.666 38.272 244.09 38.58 243.674 39.196C243.266 39.812 243.062 40.68 243.062 41.8C243.062 42.92 243.266 43.788 243.674 44.404ZM255.9 44.968C255.348 45.752 254.568 46.144 253.56 46.144C252.552 46.144 251.768 45.752 251.208 44.968C250.656 44.176 250.38 43.12 250.38 41.8C250.38 40.48 250.656 39.428 251.208 38.644C251.768 37.852 252.552 37.456 253.56 37.456C254.568 37.456 255.348 37.852 255.9 38.644C256.46 39.428 256.74 40.48 256.74 41.8C256.74 43.12 256.46 44.176 255.9 44.968ZM251.832 44.404C252.248 45.02 252.824 45.328 253.56 45.328C254.296 45.328 254.868 45.02 255.276 44.404C255.692 43.788 255.9 42.92 255.9 41.8C255.9 40.68 255.692 39.812 255.276 39.196C254.868 38.58 254.296 38.272 253.56 38.272C252.824 38.272 252.248 38.58 251.832 39.196C251.424 39.812 251.22 40.68 251.22 41.8C251.22 42.92 251.424 43.788 251.832 44.404ZM270.179 37.6V46H269.339V38.872L266.399 43.792H266.279L263.339 38.872V46H262.499V37.6H263.543L266.339 42.28L269.135 37.6H270.179ZM272.109 40.48V39.868L274.125 38.02C274.461 37.724 274.629 37.384 274.629 37C274.629 36.776 274.549 36.596 274.389 36.46C274.237 36.324 274.029 36.256 273.765 36.256C273.269 36.256 272.921 36.504 272.721 37L272.097 36.652C272.401 35.908 272.957 35.536 273.765 35.536C274.245 35.536 274.633 35.676 274.929 35.956C275.225 36.236 275.373 36.584 275.373 37C275.373 37.552 275.125 38.052 274.629 38.5L273.213 39.76H275.469V40.48H272.109Z" fill="#686B78"/>
<path d="M106.543 40.984C107.327 40.984 107.991 41.216 108.535 41.68C109.087 42.136 109.363 42.764 109.363 43.564C109.363 44.364 109.087 44.996 108.535 45.46C107.991 45.916 107.327 46.144 106.543 46.144C105.911 46.144 105.347 45.992 104.851 45.688C104.355 45.376 104.019 44.932 103.843 44.356L104.551 43.948C104.671 44.396 104.907 44.74 105.259 44.98C105.619 45.212 106.047 45.328 106.543 45.328C107.119 45.328 107.591 45.176 107.959 44.872C108.335 44.56 108.523 44.124 108.523 43.564C108.523 43.004 108.335 42.572 107.959 42.268C107.591 41.956 107.119 41.8 106.543 41.8H104.263L104.563 37.6H109.063V38.392H105.307L105.127 40.984H106.543ZM116.564 44.968C116.012 45.752 115.232 46.144 114.224 46.144C113.216 46.144 112.432 45.752 111.872 44.968C111.32 44.176 111.044 43.12 111.044 41.8C111.044 40.48 111.32 39.428 111.872 38.644C112.432 37.852 113.216 37.456 114.224 37.456C115.232 37.456 116.012 37.852 116.564 38.644C117.124 39.428 117.404 40.48 117.404 41.8C117.404 43.12 117.124 44.176 116.564 44.968ZM112.496 44.404C112.912 45.02 113.488 45.328 114.224 45.328C114.96 45.328 115.532 45.02 115.94 44.404C116.356 43.788 116.564 42.92 116.564 41.8C116.564 40.68 116.356 39.812 115.94 39.196C115.532 38.58 114.96 38.272 114.224 38.272C113.488 38.272 112.912 38.58 112.496 39.196C112.088 39.812 111.884 40.68 111.884 41.8C111.884 42.92 112.088 43.788 112.496 44.404ZM124.722 44.968C124.17 45.752 123.39 46.144 122.382 46.144C121.374 46.144 120.59 45.752 120.03 44.968C119.478 44.176 119.202 43.12 119.202 41.8C119.202 40.48 119.478 39.428 120.03 38.644C120.59 37.852 121.374 37.456 122.382 37.456C123.39 37.456 124.17 37.852 124.722 38.644C125.282 39.428 125.562 40.48 125.562 41.8C125.562 43.12 125.282 44.176 124.722 44.968ZM120.654 44.404C121.07 45.02 121.646 45.328 122.382 45.328C123.118 45.328 123.69 45.02 124.098 44.404C124.514 43.788 124.722 42.92 124.722 41.8C124.722 40.68 124.514 39.812 124.098 39.196C123.69 38.58 123.118 38.272 122.382 38.272C121.646 38.272 121.07 38.58 120.654 39.196C120.246 39.812 120.042 40.68 120.042 41.8C120.042 42.92 120.246 43.788 120.654 44.404ZM139.001 37.6V46H138.161V38.872L135.221 43.792H135.101L132.161 38.872V46H131.321V37.6H132.365L135.161 42.28L137.957 37.6H139.001ZM140.931 40.48V39.868L142.947 38.02C143.283 37.724 143.451 37.384 143.451 37C143.451 36.776 143.371 36.596 143.211 36.46C143.059 36.324 142.851 36.256 142.587 36.256C142.091 36.256 141.743 36.504 141.543 37L140.919 36.652C141.223 35.908 141.779 35.536 142.587 35.536C143.067 35.536 143.455 35.676 143.751 35.956C144.047 36.236 144.195 36.584 144.195 37C144.195 37.552 143.947 38.052 143.451 38.5L142.035 39.76H144.291V40.48H140.931Z" fill="#686B78"/>
<path d="M352.624 37.6H353.344V46H352.504V38.524L350.62 39.088L350.404 38.368L352.624 37.6ZM361.682 40.984C362.466 40.984 363.13 41.216 363.674 41.68C364.226 42.136 364.502 42.764 364.502 43.564C364.502 44.364 364.226 44.996 363.674 45.46C363.13 45.916 362.466 46.144 361.682 46.144C361.05 46.144 360.486 45.992 359.99 45.688C359.494 45.376 359.158 44.932 358.982 44.356L359.69 43.948C359.81 44.396 360.046 44.74 360.398 44.98C360.758 45.212 361.186 45.328 361.682 45.328C362.258 45.328 362.73 45.176 363.098 44.872C363.474 44.56 363.662 44.124 363.662 43.564C363.662 43.004 363.474 42.572 363.098 42.268C362.73 41.956 362.258 41.8 361.682 41.8H359.402L359.702 37.6H364.202V38.392H360.446L360.266 40.984H361.682ZM371.703 44.968C371.151 45.752 370.371 46.144 369.363 46.144C368.355 46.144 367.571 45.752 367.011 44.968C366.459 44.176 366.183 43.12 366.183 41.8C366.183 40.48 366.459 39.428 367.011 38.644C367.571 37.852 368.355 37.456 369.363 37.456C370.371 37.456 371.151 37.852 371.703 38.644C372.263 39.428 372.543 40.48 372.543 41.8C372.543 43.12 372.263 44.176 371.703 44.968ZM367.635 44.404C368.051 45.02 368.627 45.328 369.363 45.328C370.099 45.328 370.671 45.02 371.079 44.404C371.495 43.788 371.703 42.92 371.703 41.8C371.703 40.68 371.495 39.812 371.079 39.196C370.671 38.58 370.099 38.272 369.363 38.272C368.627 38.272 368.051 38.58 367.635 39.196C367.227 39.812 367.023 40.68 367.023 41.8C367.023 42.92 367.227 43.788 367.635 44.404ZM379.861 44.968C379.309 45.752 378.529 46.144 377.521 46.144C376.513 46.144 375.729 45.752 375.169 44.968C374.617 44.176 374.341 43.12 374.341 41.8C374.341 40.48 374.617 39.428 375.169 38.644C375.729 37.852 376.513 37.456 377.521 37.456C378.529 37.456 379.309 37.852 379.861 38.644C380.421 39.428 380.701 40.48 380.701 41.8C380.701 43.12 380.421 44.176 379.861 44.968ZM375.793 44.404C376.209 45.02 376.785 45.328 377.521 45.328C378.257 45.328 378.829 45.02 379.237 44.404C379.653 43.788 379.861 42.92 379.861 41.8C379.861 40.68 379.653 39.812 379.237 39.196C378.829 38.58 378.257 38.272 377.521 38.272C376.785 38.272 376.209 38.58 375.793 39.196C375.385 39.812 375.181 40.68 375.181 41.8C375.181 42.92 375.385 43.788 375.793 44.404ZM394.14 37.6V46H393.3V38.872L390.36 43.792H390.24L387.3 38.872V46H386.46V37.6H387.504L390.3 42.28L393.096 37.6H394.14ZM396.07 40.48V39.868L398.086 38.02C398.422 37.724 398.59 37.384 398.59 37C398.59 36.776 398.51 36.596 398.35 36.46C398.198 36.324 397.99 36.256 397.726 36.256C397.23 36.256 396.882 36.504 396.682 37L396.058 36.652C396.362 35.908 396.918 35.536 397.726 35.536C398.206 35.536 398.594 35.676 398.89 35.956C399.186 36.236 399.334 36.584 399.334 37C399.334 37.552 399.086 38.052 398.59 38.5L397.174 39.76H399.43V40.48H396.07Z" fill="#686B78"/>
<path d="M10.6028 44.968C10.0508 45.752 9.27081 46.144 8.26281 46.144C7.25481 46.144 6.47081 45.752 5.91081 44.968C5.35881 44.176 5.08281 43.12 5.08281 41.8C5.08281 40.48 5.35881 39.428 5.91081 38.644C6.47081 37.852 7.25481 37.456 8.26281 37.456C9.27081 37.456 10.0508 37.852 10.6028 38.644C11.1628 39.428 11.4428 40.48 11.4428 41.8C11.4428 43.12 11.1628 44.176 10.6028 44.968ZM6.53481 44.404C6.95081 45.02 7.52681 45.328 8.26281 45.328C8.99881 45.328 9.57081 45.02 9.97881 44.404C10.3948 43.788 10.6028 42.92 10.6028 41.8C10.6028 40.68 10.3948 39.812 9.97881 39.196C9.57081 38.58 8.99881 38.272 8.26281 38.272C7.52681 38.272 6.95081 38.58 6.53481 39.196C6.12681 39.812 5.92281 40.68 5.92281 41.8C5.92281 42.92 6.12681 43.788 6.53481 44.404ZM24.8814 37.6V46H24.0414V38.872L21.1014 43.792H20.9814L18.0414 38.872V46H17.2014V37.6H18.2454L21.0414 42.28L23.8374 37.6H24.8814ZM26.8111 40.48V39.868L28.8271 38.02C29.1631 37.724 29.3311 37.384 29.3311 37C29.3311 36.776 29.2511 36.596 29.0911 36.46C28.9391 36.324 28.7311 36.256 28.4671 36.256C27.9711 36.256 27.6231 36.504 27.4231 37L26.7991 36.652C27.1031 35.908 27.6591 35.536 28.4671 35.536C28.9471 35.536 29.3351 35.676 29.6311 35.956C29.9271 36.236 30.0751 36.584 30.0751 37C30.0751 37.552 29.8271 38.052 29.3311 38.5L27.9151 39.76H30.1711V40.48H26.8111Z" fill="#686B78"/>
<line x1="0.5" x2="0.5" y2="25" stroke="#CED9DE"/>
<line x1="500.5" x2="500.5" y2="25" stroke="#CED9DE"/>
<line x1="250.5" x2="250.5" y2="25" stroke="#CED9DE"/>
<line x1="225.5" x2="225.5" y2="10" stroke="#CED9DE"/>
<line x1="475.5" x2="475.5" y2="10" stroke="#CED9DE"/>
<line x1="200.5" x2="200.5" y2="10" stroke="#CED9DE"/>
<line x1="450.5" x2="450.5" y2="10" stroke="#CED9DE"/>
<line x1="150.5" x2="150.5" y2="10" stroke="#CED9DE"/>
<line x1="400.5" x2="400.5" y2="10" stroke="#CED9DE"/>
<line x1="175.5" x2="175.5" y2="10" stroke="#CED9DE"/>
<line x1="425.5" x2="425.5" y2="10" stroke="#CED9DE"/>
<line x1="100.5" x2="100.5" y2="10" stroke="#CED9DE"/>
<line x1="350.5" x2="350.5" y2="10" stroke="#CED9DE"/>
<line x1="125.5" x2="125.5" y2="25" stroke="#CED9DE"/>
<line x1="375.5" x2="375.5" y2="25" stroke="#CED9DE"/>
<line x1="50.5" x2="50.5" y2="10" stroke="#CED9DE"/>
<line x1="300.5" x2="300.5" y2="10" stroke="#CED9DE"/>
<line x1="75.5" x2="75.5" y2="10" stroke="#CED9DE"/>
<line x1="325.5" x2="325.5" y2="10" stroke="#CED9DE"/>
<line x1="25.5" x2="25.5" y2="10" stroke="#CED9DE"/>
<line x1="275.5" x2="275.5" y2="10" stroke="#CED9DE"/>
</svg>
